<svg version="1.1" xmlns="http://www.w3.org/2000/svg" viewBox="0 0 426 385">
  <path d="M142.5 384.7c-7.5-1.8-13.5-5.2-21.1-11.1-5.5-4.4-12.6-11.9-14.6-15.6-0.4-0.6-9.7-16.9-20.5-36.2L66.4 285H0v-50h7.3c3.9 0 7.6-0.2 8.2-0.4 0.7-0.2 13.6-25.1 28.8-55.1 15.2-30.1 27.6-54.6 27.7-54.4 0.1 0.1 3.6 6.3 7.9 13.7l7.7 13.6 8.2 0.3c6.8 0.3 11.5 1.8 16.1 5.4 4.1 3.2 7.1 7.6 8.8 13 1.7 5.1 0.6 12-2.9 19.7-0.8 1.7-3.2 6.4-5.3 10.4l-3.7 7.3 1.5 2.5c3.4 5.6 12 15.7 17.6 19.7 5.8 4.3 12.2 6.3 21.2 6.7 7.2 0.3 11.5-0.3 18.7-2.3 6.8-1.9 15.8-4.7 19.1-5.9 2.1-0.8 3.6-1.3 3.6-1.1 0 0.1-4.5 8.4-10.1 18.4-5.6 10.1-10.5 18.9-11 19.7-0.8 1.3-2.4 1.5-10.3 1.5-5.1 0-10.1 0.2-11 0.4-0.9 0.2-7.5 6.5-14.7 14.1-13.4 14-17.4 17.2-26.6 21.5-8.3 3.9-19.5 5.1-28.9 3.1zM354.1 249.6c-2.3-0.6-5.9-1.6-8.1-2.3-4.3-1.4-11.5-6-15.3-9.7-1.3-1.3-8.5-10.3-16.1-19.8-7.5-9.5-13.9-17.4-14.2-17.5-0.3-0.1-1.7 2.1-3.1 5.1-3.4 6.6-9.7 13.2-15.7 16.5-4.7 2.5-6.7 2.9-14.4 3-6.8 0.1-9.9-0.2-13.6-1.4-6.8-2.3-12.5-7.6-15.1-14.4-0.8-2-1.3-3.6-1-3.6 0.3 0 6.8-3.5 14.5-7.7 7.7-4.2 15.5-8.5 17.2-9.4 1.8-0.9 3.1-1.7 2.9-1.9-0.3-0.2-17.5-10-38.2-21.8-20.7-11.8-37.9-21.6-38.1-21.8-0.2-0.2 5.6-1.6 13-3.2 7.3-1.6 15.4-3.6 18.1-4.5 3.8-1.2 4.7-1.2 4.7 0.1 0 0.7 7.4 5.3 16.5 10.3 9.1 5 22.1 12.6 29 17 6.9 4.5 13.3 8.1 14.3 8.1 1 0 5.6-2.8 10.2-6.2 9-6.8 17-15.2 22.7-23.7 2.2-3.3 4-6.4 4-6.8s-7.9-0.6-17.6-1c-10.4-0.4-17.7-1.1-18.1-1.8-1.3-2-13.7-48-15.1-54.5-2.2-9.6-2.4-11.6-2-19.4 0.2-3.8 1-9.3 1.5-12.2 1.6-8.3 5.1-19.3 7.3-22.6 4.6-6.9 12-12.8 18.7-15.1 2.3-0.8 5.8-1.5 7.7-1.5 4.5 0 12.1 2.6 15.4 5.3 4.8 3.7 9 10 12.2 17.9 3.3 8 6.3 19.3 10.4 38.3 3.8 17.7 11.8 54.7 12.5 56.4 0.3 0.8 4.1 0.9 12.7 0.5 6.8-0.3 12.6-0.4 12.9-0.2 0.2 0.2 3.6 7 7.6 15.2l7.2 14.9 6.8 6.4c9.5 8.9 17.4 20.1 24.7 34.7 2.6 5.3 7.4 17.1 10.5 25.2 3.1 8.1 6.7 17.3 7.9 20.4 2.6 6.3 2.6 9.1-0.1 15.5-1.7 4-5.1 8.6-8.3 11-5.3 3.9-8.2 4.7-22.7 5.8-8.6 0.6-16.3 0.2-19.5-1z" fill="black"/>
</svg>
